# xmcd
#
# Track frame offsets: 
#        150
#        14415
#        29532
#        45539
#        61194
#        77524
#        94688
#        110105
#        124430
#        139486
#        152691
#        168644
#        184227
#        200012
#        215852
#
# Disc length: 3102 seconds
#
# Revision: 0
# Processed by: cddbd v1.5.2PL0 Copyright (c) Steve Scherf et al.
# Submitted via: ExactAudioCopy v0.99pb5
#
DISCID=e10c1c0f
DTITLE=Олег Винник - Счастье
DYEAR=2012
DGENRE=
TTITLE0=Счастье
TTITLE1=Аэропорт
TTITLE2=Остров
TTITLE3=О тебе
TTITLE4=Любимая
TTITLE5=Мука-любовь
TTITLE6=Танечка
TTITLE7=Метель
TTITLE8=Не ты
TTITLE9=Кто-то тебя
TTITLE10=Плен
TTITLE11=Здравствуй невеста
TTITLE12=Па-Па
TTITLE13=День Рождения
TTITLE14=Плачут иконы
EXTD=
EXTT0=
EXTT1=
EXTT2=
EXTT3=
EXTT4=
EXTT5=
EXTT6=
EXTT7=
EXTT8=
EXTT9=
EXTT10=
EXTT11=
EXTT12=
EXTT13=
EXTT14=
PLAYORDER=
